<svg xmlns="http://www.w3.org/2000/svg" xmlns:svg="http://www.w3.org/2000/svg" xmlns:xlink="http://www.w3.org/1999/xlink" id="svg5" width="760" height="420" version="1.1" viewBox="0 0 201.083 111.125"><defs id="defs2"><color-profile id="color-profile2793" name="Apple-RGB" xlink:href="file:///usr/share/color/icc/colord/AppleRGB.icc"/></defs><g id="layer1"><rect style="fill:#382a1f;fill-opacity:1;stroke-width:.266046" id="rect1358-7" width="17.964" height="71.751" x="165.5" y="21.074" rx="3.535" ry="4.441" transform="matrix(1,0,-0.08715574,0.9961947,0,0)"/><rect style="fill:#564639;fill-opacity:1;stroke-width:.187386" id="rect1358-7-5" width="17.588" height="36.358" x="96.694" y="55.47" rx="4.085" ry="4.277" transform="matrix(1,0,-0.08715574,0.9961947,0,0)"/><rect style="fill:#382a1f;fill-opacity:1;stroke-width:.113498" id="rect1358-7-5-5" width="17.471" height="13.427" x="96.95" y="36.167" rx="4.752" ry="3.808" transform="matrix(1,0,-0.0959674,0.99538448,0,0)"/><rect style="fill:#382a1f;fill-opacity:1;stroke-width:.22968" id="rect1358-0" width="20.87" height="46.031" x="-90.087" y="68.352" rx="6.512" ry="7.834" transform="matrix(-1,0,0.58856927,0.80844679,0,0)"/><rect style="fill:#382a1f;fill-opacity:1;stroke-width:.309978" id="rect1358-5" width="23.218" height="75.364" x="-58.119" y="21.087" rx="5.595" ry="6.032" transform="matrix(-1,0,0.31695876,0.94843932,0,0)"/><rect style="fill:#564639;fill-opacity:1;stroke-width:.309978" id="rect1358-5-6" width="23.218" height="75.364" x="48.269" y="21.087" rx="5.595" ry="6.032" transform="matrix(1,0,-0.31695876,0.94843932,0,0)"/><rect style="fill:#564639;fill-opacity:1;stroke-width:.22968" id="rect1358-0-8" width="20.87" height="46.031" x="176.3" y="68.352" rx="6.512" ry="7.834" transform="matrix(1,0,-0.58856927,0.80844679,0,0)"/><rect style="fill:#564639;fill-opacity:1;stroke-width:.172277" id="rect1358-7-5-5-8" width="39.512" height="13.679" x="149.159" y="36.846" rx="5.333" ry="3.879" transform="matrix(1,0,-0.21303524,0.97704452,0,0)"/></g></svg>